<?xml version="1.0" encoding="UTF-8"?>
<svg id="katman_2" data-name="katman 2" xmlns="http://www.w3.org/2000/svg" viewBox="0 0 1599.48 321.8">
  <g id="source">
    <g>
      <g id="logo_mark_final">
        <path d="M163.67,165.71L10.68,254.03c-2.28,1.32-2.28,4.61,0,5.93l69.77,40.28c49.78,28.74,111.12,28.74,160.91,0l68.71-39.67c7.26-4.19,11.74-11.94,11.74-20.33V80.34c0-2.64-2.85-4.29-5.14-2.97l-152.99,88.33Z"/>
        <path d="M311.12,61.84l-69.77-40.28c-49.78-28.74-111.12-28.74-160.91,0L10.68,61.84c-2.28,1.32-2.28,4.61,0,5.93l142.97,82.54c4.49,2.59,10.02,2.59,14.51,0l142.97-82.54c2.28-1.32,2.28-4.61,0-5.93Z"/>
        <path d="M0,84.01v153.79c0,4.27,4.62,6.93,8.31,4.8l136.36-78.72c2.28-1.32,2.28-4.61,0-5.93L8.31,79.21c-3.7-2.13-8.31.53-8.31,4.8Z"/>
      </g>
      <g id="logo_text">
        <path d="M520.58,69.9h40.07c1.91,0,3.45,1.56,3.43,3.46l-.23,21.37v139.2l.23,21.37c.02,1.91-1.52,3.46-3.43,3.46h-34.41c-1.75,0-3.4-.83-4.44-2.23l-77.28-103.69h-.53l.53,16.64v64.45l.23,21.37c.02,1.91-1.52,3.46-3.43,3.46h-40.07c-1.91,0-3.45-1.56-3.43-3.46l.23-21.37V94.73l-.23-21.37c-.02-1.91,1.52-3.46,3.43-3.46h26.11c11.97,0,23.23,5.64,30.4,15.22l59.62,79.61h.53l-.53-16.64v-53.36l-.23-21.37c-.02-1.91,1.52-3.46,3.43-3.46Z"/>
        <path d="M593.18,164.2c0-54.41,36.96-99.32,95.31-99.32s95.31,44.9,95.31,99.32-37.22,99.58-95.31,99.58-95.31-44.9-95.31-99.58ZM722.54,164.2c0-43.58-13.2-61.02-34.06-61.02s-34.06,17.43-34.06,61.02,12.94,61.28,34.06,61.28,34.06-17.43,34.06-61.28Z"/>
        <path d="M990.05,258.76h-22.2c-2.73,0-5.05-1.98-5.47-4.67l-2.69-16.98h-.53c-10.56,14.53-26.4,26.68-56.76,26.68-48.58,0-89.5-33.02-89.5-98.79s42.51-100.11,95.57-100.11c37.4,0,71.07,16.91,82.2,55.79.56,1.94-.7,3.94-2.69,4.3l-44.18,8.02c-1.73.31-3.4-.74-3.9-2.44-4.36-14.84-15.41-27.37-32.48-27.37-19.01,0-36.17,16.64-36.17,61.54s18.22,60.75,36.7,60.75c20.06,0,33.53-13.74,34.32-35.39h-31.16c-1.89,0-3.43-1.53-3.43-3.43v-27.49c0-1.89,1.53-3.43,3.43-3.43h79.18c1.91,0,3.45,1.56,3.43,3.46l-.23,21.37v74.76c0,1.89-1.53,3.43-3.43,3.43Z"/>
        <path d="M1068.49,258.76h-42.27c-2.36,0-4.02-2.34-3.23-4.56l55.99-158.93c5.35-15.2,19.71-25.37,35.83-25.37h2.99c16.24,0,30.68,10.32,35.94,25.68l54.33,158.65c.76,2.22-.89,4.54-3.24,4.54h-51.22c-1.53,0-2.88-1.02-3.3-2.49l-8.45-29.92c-.67-2.39-2.85-4.04-5.33-4.04h-50.07c-2.43,0-4.57,1.58-5.29,3.89l-9.39,30.15c-.45,1.43-1.77,2.41-3.27,2.41ZM1093.98,185.06h36.43l-16.9-61.81h-.53l-19.01,61.81Z"/>
        <path d="M1295.88,190.61c-1.89,0-3.43,1.53-3.43,3.43v39.89l.23,21.37c.02,1.91-1.52,3.46-3.43,3.46h-48.25c-1.91,0-3.45-1.56-3.43-3.46l.23-21.37V94.73l-.23-21.37c-.02-1.91,1.52-3.46,3.43-3.46h87.09c35.64,0,74.19,10.83,74.19,59.7s-33.53,61.02-68.38,61.02h-38.02ZM1292.45,152.31h28.25c15.84,0,27.72-3.7,27.72-22.45s-12.41-21.92-27.72-21.92h-28.25v44.37Z"/>
        <path d="M1568.21,121.27c-1.26,1.26-3.27,1.35-4.62.2-12.59-10.7-26.73-19.34-48.58-19.34-16.37,0-29.57,5.81-29.57,17.7,0,15.85,24.02,16.11,47.26,20.34,36.17,6.6,66.79,21.4,66.79,58.11s-31.68,65.51-84.75,65.51c-38.37,0-67.81-14.25-86.47-32.12-1.39-1.34-1.41-3.56-.04-4.92l23.5-23.29c1.28-1.26,3.31-1.33,4.66-.15,14.78,13.01,32.01,23.23,57.56,23.23,16.37,0,31.15-5.28,31.15-18.23,0-17.43-27.19-18.22-50.95-22.72-33.79-6.34-62.83-19.55-62.83-56s29.83-64.71,79.47-64.71c34.75,0,63.58,13.5,80.66,27.94,1.52,1.29,1.59,3.61.19,5.02l-23.42,23.43Z"/>
      </g>
    </g>
  </g>
</svg>